<svg
        xmlns="http://www.w3.org/2000/svg"
        xmlns:xlink="http://www.w3.org/1999/xlink"
        width="122px" height="79px">
    <defs>
        <filter filterUnits="userSpaceOnUse" id="Filter_0" x="0px" y="0px" width="122px" height="79px"  >
            <feOffset in="SourceAlpha" dx="0" dy="7" />
            <feGaussianBlur result="blurOut" stdDeviation="3.606" />
            <feFlood flood-color="rgb(0, 0, 0)" result="floodOut" />
            <feComposite operator="atop" in="floodOut" in2="blurOut" />
            <feComponentTransfer><feFuncA type="linear" slope="0.32"/></feComponentTransfer>
            <feMerge>
                <feMergeNode/>
                <feMergeNode in="SourceGraphic"/>
            </feMerge>
        </filter>

    </defs>
    <g filter="url(#Filter_0)">
        <path fill-rule="evenodd"  fill="rgb(255, 255, 255)"
              d="M82.496,56.856 L75.100,49.440 L91.995,32.498 L75.100,15.555 L82.496,8.139 L106.786,32.498 L82.496,56.856 ZM75.510,15.555 L92.405,32.498 L75.510,49.440 L82.496,56.445 L106.376,32.498 L82.496,8.550 L75.510,15.555 ZM52.597,56.856 L45.202,49.440 L62.096,32.498 L45.202,15.555 L52.597,8.139 L76.888,32.498 L52.597,56.856 ZM23.329,56.856 L15.934,49.440 L32.828,32.498 L15.934,15.555 L23.329,8.139 L47.620,32.498 L23.329,56.856 ZM16.344,15.555 L33.238,32.498 L16.344,49.440 L23.329,56.445 L47.210,32.498 L23.329,8.550 L16.344,15.555 Z"/>
    </g>
</svg>