<svg
        xmlns="http://www.w3.org/2000/svg"
        xmlns:xlink="http://www.w3.org/1999/xlink"
        width="57px" height="106px">
    <path fill-rule="evenodd"  fill="rgb(255, 255, 255)"
          d="M0.503,42.917 L9.028,34.368 L28.502,53.898 L47.975,34.368 L56.499,42.917 L28.502,70.998 L0.503,42.917 ZM0.503,9.083 L9.028,0.533 L28.502,20.064 L47.975,0.533 L56.499,9.083 L28.502,37.163 L0.503,9.083 ZM47.975,1.007 L28.502,20.538 L9.028,1.007 L0.976,9.083 L28.502,36.689 L56.027,9.083 L47.975,1.007 ZM28.502,88.462 L47.975,68.931 L56.499,77.481 L28.502,105.561 L0.503,77.481 L9.028,68.931 L28.502,88.462 ZM28.502,105.087 L56.027,77.481 L47.975,69.405 L28.502,88.936 L9.028,69.405 L0.976,77.481 L28.502,105.087 Z"/>
</svg>