<svg width="500" height="500">
    <defs>
        <clipPath id="zigzagClipPath">
            <path fill-rule="evenodd"
                  d="M2.713,11.541 L114.713,13.541 L124.713,2.541 L137.713,15.541 L220.713,15.541 L236.713,6.541 L339.713,6.541 L346.713,19.541 L358.713,14.541 L392.713,11.541 L398.713,2.541 L409.713,11.541 L469.713,13.541 L486.713,25.541 L502.713,14.541 L541.713,13.541 L553.713,1.541 L640.713,1.541 L648.713,9.541 L655.713,2.541 L732.713,2.541 L743.713,13.541 L767.713,13.541 L901.713,13.541 L916.713,23.541 L924.713,15.541 L1002.713,15.541 L1010.713,23.541 L1026.713,23.541 L1040.713,9.541 L1161.713,9.541 L1215.713,9.541 L1227.713,21.541 L1238.713,10.541 L1340.713,10.541 L1354.713,24.541 L1369.713,9.541 L1478.713,9.541 L1478.713,873.541 L1433.713,873.541 L1411.713,873.541 L1397.713,859.541 L1388.713,868.541 L1258.713,868.541 L1258.713,882.541 L1211.713,882.541 L1195.713,866.541 L1123.713,866.541 L1018.713,866.541 L1008.713,876.541 L994.713,862.541 L927.713,862.541 L720.713,862.541 L709.713,849.541 L697.713,860.541 L656.713,860.541 L646.713,870.541 L599.713,870.541 L599.713,858.541 L518.713,858.541 L495.713,858.541 L485.713,868.541 L473.713,856.541 L251.713,856.541 L238.713,869.541 L223.713,854.541 L93.713,854.541 L79.713,868.541 L71.713,860.541 L1.713,860.541 L2.713,11.541 Z"/>
        </clipPath>
    </defs>
</svg>
