<svg
        xmlns="http://www.w3.org/2000/svg"
        xmlns:xlink="http://www.w3.org/1999/xlink"
        width="39px" height="32px">
    <path fill-rule="evenodd"  fill="rgb(255, 255, 255)"
          d="M36.790,17.731 L2.219,17.731 C0.996,17.731 0.005,16.739 0.005,15.516 C0.005,14.293 0.996,13.302 2.219,13.302 L36.790,13.302 C38.013,13.302 39.005,14.293 39.005,15.516 C39.005,16.739 38.013,17.731 36.790,17.731 ZM36.790,4.445 L2.219,4.445 C0.996,4.445 0.005,3.453 0.005,2.231 C0.005,1.008 0.996,0.016 2.219,0.016 L36.790,0.016 C38.013,0.016 39.005,1.008 39.005,2.231 C39.005,3.453 38.013,4.445 36.790,4.445 ZM2.219,26.587 L36.790,26.587 C38.013,26.587 39.005,27.579 39.005,28.802 C39.005,30.025 38.013,31.016 36.790,31.016 L2.219,31.016 C0.996,31.016 0.005,30.025 0.005,28.802 C0.005,27.579 0.996,26.587 2.219,26.587 Z"/>
</svg>