<svg
        xmlns="http://www.w3.org/2000/svg"
        xmlns:xlink="http://www.w3.org/1999/xlink"
        width="154px" height="23px">
    <path fill-rule="evenodd"  fill="rgb(0, 0, 0)"
          d="M153.354,1.354 L134.707,20.000 L135.354,20.646 L134.646,21.354 L134.000,20.707 L132.354,22.354 L131.646,21.646 L133.293,20.000 L115.000,1.707 L96.707,20.000 L97.354,20.646 L96.646,21.354 L96.000,20.707 L94.354,22.354 L93.646,21.646 L95.293,20.000 L77.000,1.707 L58.707,20.000 L59.354,20.646 L58.646,21.354 L58.000,20.707 L56.354,22.354 L55.646,21.646 L57.293,20.000 L39.000,1.707 L20.707,20.000 L21.354,20.646 L20.646,21.354 L20.000,20.707 L18.354,22.354 L17.646,21.646 L19.293,20.000 L0.646,1.354 L1.354,0.646 L20.000,19.293 L38.646,0.646 L39.000,1.000 L39.354,0.646 L58.000,19.293 L76.646,0.646 L77.000,1.000 L77.354,0.646 L96.000,19.293 L114.646,0.646 L115.000,1.000 L115.354,0.646 L134.000,19.293 L152.646,0.646 L153.354,1.354 Z"/>
</svg>